<svg id="visual" viewBox="0 0 900 600" width="900" height="600" xmlns="http://www.w3.org/2000/svg" xmlns:xlink="http://www.w3.org/1999/xlink" version="1.1"><path d="M0 91L13.7 94C27.3 97 54.7 103 82 108C109.3 113 136.7 117 163.8 108C191 99 218 77 245.2 69C272.3 61 299.7 67 327 68C354.3 69 381.7 65 409 61C436.3 57 463.7 53 491 54C518.3 55 545.7 61 573 63C600.3 65 627.7 63 654.8 70C682 77 709 93 736.2 95C763.3 97 790.7 85 818 82C845.3 79 872.7 85 886.3 88L900 91L900 0L886.3 0C872.7 0 845.3 0 818 0C790.7 0 763.3 0 736.2 0C709 0 682 0 654.8 0C627.7 0 600.3 0 573 0C545.7 0 518.3 0 491 0C463.7 0 436.3 0 409 0C381.7 0 354.3 0 327 0C299.7 0 272.3 0 245.2 0C218 0 191 0 163.8 0C136.7 0 109.3 0 82 0C54.7 0 27.3 0 13.7 0L0 0Z" fill="#d0edff"></path><path d="M0 223L13.7 216C27.3 209 54.7 195 82 200C109.3 205 136.7 229 163.8 220C191 211 218 169 245.2 152C272.3 135 299.7 143 327 158C354.3 173 381.7 195 409 198C436.3 201 463.7 185 491 174C518.3 163 545.7 157 573 148C600.3 139 627.7 127 654.8 137C682 147 709 179 736.2 190C763.3 201 790.7 191 818 194C845.3 197 872.7 213 886.3 221L900 229L900 89L886.3 86C872.7 83 845.3 77 818 80C790.7 83 763.3 95 736.2 93C709 91 682 75 654.8 68C627.7 61 600.3 63 573 61C545.7 59 518.3 53 491 52C463.7 51 436.3 55 409 59C381.7 63 354.3 67 327 66C299.7 65 272.3 59 245.2 67C218 75 191 97 163.8 106C136.7 115 109.3 111 82 106C54.7 101 27.3 95 13.7 92L0 89Z" fill="#c2e9ff"></path><path d="M0 331L13.7 342C27.3 353 54.7 375 82 395C109.3 415 136.7 433 163.8 410C191 387 218 323 245.2 292C272.3 261 299.7 263 327 271C354.3 279 381.7 293 409 313C436.3 333 463.7 359 491 368C518.3 377 545.7 369 573 366C600.3 363 627.7 365 654.8 375C682 385 709 403 736.2 398C763.3 393 790.7 365 818 352C845.3 339 872.7 341 886.3 342L900 343L900 227L886.3 219C872.7 211 845.3 195 818 192C790.7 189 763.3 199 736.2 188C709 177 682 145 654.8 135C627.7 125 600.3 137 573 146C545.7 155 518.3 161 491 172C463.7 183 436.3 199 409 196C381.7 193 354.3 171 327 156C299.7 141 272.3 133 245.2 150C218 167 191 209 163.8 218C136.7 227 109.3 203 82 198C54.7 193 27.3 207 13.7 214L0 221Z" fill="#b4e6ff"></path><path d="M0 505L13.7 508C27.3 511 54.7 517 82 521C109.3 525 136.7 527 163.8 528C191 529 218 529 245.2 526C272.3 523 299.7 517 327 518C354.3 519 381.7 527 409 530C436.3 533 463.7 531 491 534C518.3 537 545.7 545 573 544C600.3 543 627.7 533 654.8 527C682 521 709 519 736.2 517C763.3 515 790.7 513 818 510C845.3 507 872.7 503 886.3 501L900 499L900 341L886.3 340C872.7 339 845.3 337 818 350C790.7 363 763.3 391 736.2 396C709 401 682 383 654.8 373C627.7 363 600.3 361 573 364C545.7 367 518.3 375 491 366C463.7 357 436.3 331 409 311C381.7 291 354.3 277 327 269C299.7 261 272.3 259 245.2 290C218 321 191 385 163.8 408C136.7 431 109.3 413 82 393C54.7 373 27.3 351 13.7 340L0 329Z" fill="#a7e2ff"></path><path d="M0 601L13.7 601C27.3 601 54.7 601 82 601C109.3 601 136.7 601 163.8 601C191 601 218 601 245.2 601C272.3 601 299.7 601 327 601C354.3 601 381.7 601 409 601C436.3 601 463.7 601 491 601C518.3 601 545.7 601 573 601C600.3 601 627.7 601 654.8 601C682 601 709 601 736.2 601C763.3 601 790.7 601 818 601C845.3 601 872.7 601 886.3 601L900 601L900 497L886.3 499C872.7 501 845.3 505 818 508C790.7 511 763.3 513 736.2 515C709 517 682 519 654.8 525C627.7 531 600.3 541 573 542C545.7 543 518.3 535 491 532C463.7 529 436.3 531 409 528C381.7 525 354.3 517 327 516C299.7 515 272.3 521 245.2 524C218 527 191 527 163.8 526C136.7 525 109.3 523 82 519C54.7 515 27.3 509 13.7 506L0 503Z" fill="#9addff"></path></svg>